<svg version="1.1" viewBox="0.0 0.0 480.0 480.0" fill="none" stroke="none" stroke-linecap="square" stroke-miterlimit="10" xmlns:xlink="http://www.w3.org/1999/xlink" xmlns="http://www.w3.org/2000/svg"><clipPath id="p.0"><path d="m0 0l480.0 0l0 480.0l-480.0 0l0 -480.0z" clip-rule="nonzero"/></clipPath><g clip-path="url(#p.0)"><path fill="#000000" fill-opacity="0.0" d="m0 0l480.0 0l0 480.0l-480.0 0z" fill-rule="evenodd"/><path fill="#000000" fill-opacity="0.0" d="m0.1312336 0l480.0 0l0 480.0l-480.0 0z" fill-rule="evenodd"/><path fill="#9cc0ab" d="m259.33118 269.79688l128.20312 0l0 8.40625l-20.203125 0l0 47.796875q-9.796875 10.203125 -20.703125 21.609375q-10.890625 11.390625 -24.59375 21.5q-13.703125 10.09375 -31.90625 16.5q-18.203125 6.390625 -42.59372 6.390625q-44.609375 0 -76.40625 -19.09375q-31.796875 -19.109375 -48.703133 -53.703125q-16.890625 -34.609375 -16.890625 -81.203125q0 -35.0 11.5 -63.296875q11.500008 -28.296875 31.890633 -48.59375q20.40625 -20.3125 47.203125 -31.203125q26.796875 -10.90625 57.203125 -10.90625q17.203094 0 33.49997 5.90625q16.296875 5.890625 29.703125 16.296875l35.796875 -18.203125l6.796875 0l0 88.0l-8.0 0q-3.390625 -15.796875 -11.5 -30.390625q-8.09375 -14.609375 -20.296875 -26.3125q-12.203125 -11.703125 -27.5 -18.5q-15.296875 -6.796875 -32.90625 -6.796875q-22.390594 0 -38.203094 12.109375q-15.796875 12.09375 -25.890625 32.59375q-10.09375 20.5 -14.796875 46.203125q-4.703125 25.6875 -4.703125 53.09375q0 27.203125 3.203125 53.3125q3.203125 26.09375 11.203125 47.09375q8.0 21.0 22.09375 33.40625q14.09375 12.390625 35.703125 12.390625q12.5937195 0 21.68747 -4.703125q9.109375 -4.703125 15.5 -12.0q6.40625 -7.296875 10.40625 -15.296875q4.0 -8.0 6.40625 -14.203125l0 -59.796875l-42.203125 0l0 -8.40625z" fill-rule="nonzero"/></g></svg>